<svg width="50" height="51" viewBox="0 0 50 51" fill="none" xmlns="http://www.w3.org/2000/svg">
<path d="M25 0.111115C20.086 0.121266 15.285 1.58584 11.202 4.32024C7.11906 7.05464 3.9369 10.9365 2.05662 15.4766C0.176337 20.0166 -0.317919 25.0117 0.636146 29.8322C1.59021 34.6527 3.9499 39.0829 7.4178 42.5644L2.88446 47.0978C2.71987 47.2659 2.59 47.4647 2.50227 47.683C2.41453 47.9013 2.37065 48.1347 2.37313 48.37C2.3756 48.6052 2.42439 48.8377 2.5167 49.0541C2.60901 49.2704 2.74304 49.4665 2.91113 49.6311C3.07922 49.7957 3.27809 49.9256 3.49637 50.0133C3.71465 50.101 3.94808 50.1449 4.18332 50.1425C4.41856 50.14 4.65101 50.0912 4.8674 49.9989C5.08379 49.9066 5.27987 49.7725 5.44446 49.6044L10.1734 44.8756C14.4979 48.148 19.7788 49.907 25.2019 49.8813C30.6249 49.8556 35.889 48.0467 40.1822 44.7333L45.0534 49.6044C45.3934 49.8957 45.8309 50.0479 46.2783 50.0306C46.7258 50.0133 47.1502 49.8278 47.4668 49.5112C47.7834 49.1946 47.9689 48.7702 47.9862 48.3228C48.0035 47.8753 47.8513 47.4379 47.56 47.0978L42.7778 42.3867C46.1969 38.8845 48.5076 34.4519 49.4207 29.6434C50.3339 24.8348 49.8089 19.8638 47.9116 15.352C46.0144 10.8403 42.8289 6.98804 38.7537 4.2772C34.6785 1.56636 29.8945 0.117251 25 0.111115V0.111115ZM38.28 31.0978C38.0764 31.5213 37.7133 31.8469 37.2702 32.0035C36.8271 32.1601 36.3401 32.1348 35.9156 31.9333L23.2222 25.7822V10.2267C23.2222 9.75517 23.4095 9.30299 23.7429 8.96959C24.0763 8.63619 24.5285 8.44889 25 8.44889C25.4715 8.44889 25.9237 8.63619 26.2571 8.96959C26.5905 9.30299 26.7778 9.75517 26.7778 10.2267V23.56L37.4445 28.7333C37.6573 28.831 37.8487 28.9697 38.0077 29.1415C38.1668 29.3133 38.2903 29.5149 38.3713 29.7346C38.4522 29.9543 38.489 30.1878 38.4794 30.4217C38.4698 30.6557 38.4142 30.8854 38.3156 31.0978H38.28Z" fill="#5D5FEF"/>
</svg>
